<mxfile host="app.diagrams.net" modified="2022-09-17T20:42:26.421Z" agent="5.0 (Windows NT 10.0; Win64; x64) AppleWebKit/537.36 (KHTML, like Gecko) Chrome/105.0.0.0 Safari/537.36" etag="POqvf6nv5U7yye8ijQfr" version="20.2.6" type="github">
  <diagram name="Page-1" id="c4acf3e9-155e-7222-9cf6-157b1a14988f">
    <mxGraphModel dx="2169" dy="3454" grid="1" gridSize="10" guides="1" tooltips="1" connect="1" arrows="1" fold="1" page="1" pageScale="1" pageWidth="850" pageHeight="1100" background="#F1FAEE" math="0" shadow="1">
      <root>
        <mxCell id="0" />
        <mxCell id="1" parent="0" />
        <mxCell id="QppL3apP4pxPCaE8zfrQ-16" value="&lt;font face=&quot;Lucida Console&quot;&gt;QuestionDTO&lt;/font&gt;" style="html=1;overflow=block;blockSpacing=1;swimlane;childLayout=stackLayout;horizontal=1;horizontalStack=0;resizeParent=1;resizeParentMax=0;resizeLast=0;collapsible=0;fontStyle=0;marginBottom=0;swimlaneFillColor=#ffffff;startSize=25;whiteSpace=wrap;fontSize=16.7;fontColor=#1D3557;align=center;spacing=0;strokeColor=#457B9D;strokeOpacity=100;rounded=1;absoluteArcSize=1;arcSize=9;strokeWidth=0.8;fillColor=#A8DADC;" parent="1" vertex="1">
          <mxGeometry x="-410" y="-1740" width="310" height="216.25" as="geometry" />
        </mxCell>
        <mxCell id="QppL3apP4pxPCaE8zfrQ-17" value="&lt;font style=&quot;font-size: 14px;&quot; face=&quot;Lucida Console&quot;&gt;- Question.Id: String&lt;br&gt;- Question.Question: String&lt;br&gt;- Question.Answer: String&lt;/font&gt;" style="part=1;html=1;resizeHeight=0;strokeColor=none;fillColor=none;align=left;verticalAlign=middle;spacingLeft=4;spacingRight=4;overflow=hidden;rotatable=0;points=[[0,0.5],[1,0.5]];portConstraint=eastwest;swimlaneFillColor=#ffffff;strokeOpacity=100;whiteSpace=wrap;fontSize=16.7;fontColor=#1D3557;rounded=1;" parent="QppL3apP4pxPCaE8zfrQ-16" vertex="1">
          <mxGeometry y="25" width="310" height="79" as="geometry" />
        </mxCell>
        <mxCell id="QppL3apP4pxPCaE8zfrQ-18" value="" style="line;strokeWidth=1;fillColor=none;align=left;verticalAlign=middle;spacingTop=-1;spacingLeft=3;spacingRight=3;rotatable=0;labelPosition=right;points=[];portConstraint=eastwest;rounded=1;labelBackgroundColor=#F1FAEE;strokeColor=#457B9D;fontColor=#1D3557;" parent="QppL3apP4pxPCaE8zfrQ-16" vertex="1">
          <mxGeometry y="104" width="310" height="8" as="geometry" />
        </mxCell>
        <mxCell id="QppL3apP4pxPCaE8zfrQ-19" value="&lt;span style=&quot;color: rgb(58, 65, 74);&quot;&gt;&lt;font style=&quot;font-size: 14px;&quot; face=&quot;Lucida Console&quot;&gt;+ getId(): String&lt;br&gt;+ getQuestion(): String&lt;br&gt;&lt;/font&gt;&lt;font face=&quot;Lucida Console&quot;&gt;+ getAnswer(): String&lt;/font&gt;&lt;br&gt;&lt;/span&gt;" style="part=1;html=1;resizeHeight=0;strokeColor=none;fillColor=none;align=left;verticalAlign=middle;spacingLeft=4;spacingRight=4;overflow=hidden;rotatable=0;points=[[0,0.5],[1,0.5]];portConstraint=eastwest;swimlaneFillColor=#ffffff;strokeOpacity=100;whiteSpace=wrap;fontSize=13;rounded=1;fontColor=#1D3557;" parent="QppL3apP4pxPCaE8zfrQ-16" vertex="1">
          <mxGeometry y="112" width="310" height="104.25" as="geometry" />
        </mxCell>
        <UserObject label="" lucidchartObjectId="3J_C~.xnrt3a" id="QppL3apP4pxPCaE8zfrQ-21">
          <mxCell style="html=1;overflow=block;blockSpacing=1;whiteSpace=wrap;shape=image;fontSize=13;spacing=0;strokeColor=none;strokeOpacity=100;strokeWidth=0;image=https://images.lucid.app/images/462a75c5-ce3d-442a-9572-1a2fd26a31dd/content;imageAspect=0;rounded=1;fillColor=#A8DADC;fontColor=#1D3557;" parent="1" vertex="1">
            <mxGeometry x="-786" y="-1350" width="286" height="162" as="geometry" />
          </mxCell>
        </UserObject>
        <mxCell id="sQpOkhp2Sbl153yCbMzi-2" value="&lt;h1 style=&quot;margin: 0px; font-weight: normal; line-height: 1.3; text-rendering: optimizelegibility; overflow-wrap: break-word; hyphens: auto; color: rgb(45, 59, 69); text-align: start; background-color: rgb(255, 255, 255);&quot; class=&quot;title&quot;&gt;&lt;font style=&quot;font-size: 24px;&quot; face=&quot;Lucida Console&quot;&gt;Foundations Capstone v.1&lt;/font&gt;&lt;/h1&gt;" style="text;html=1;resizable=0;autosize=1;align=center;verticalAlign=middle;points=[];fillColor=none;strokeColor=none;rounded=1;fontColor=#1D3557;" parent="1" vertex="1">
          <mxGeometry x="-830" y="-2180" width="360" height="50" as="geometry" />
        </mxCell>
        <mxCell id="DT4qRM4iOKq09jAWjtS9-15" style="edgeStyle=orthogonalEdgeStyle;rounded=1;orthogonalLoop=1;jettySize=auto;html=1;fontSize=24;fontColor=#1D3557;endArrow=none;endFill=0;startSize=14;endSize=14;strokeColor=#457B9D;fillColor=#A8DADC;exitX=1.011;exitY=0.731;exitDx=0;exitDy=0;exitPerimeter=0;" parent="1" source="sQpOkhp2Sbl153yCbMzi-8" target="QppL3apP4pxPCaE8zfrQ-17" edge="1">
          <mxGeometry relative="1" as="geometry" />
        </mxCell>
        <mxCell id="sQpOkhp2Sbl153yCbMzi-3" value="&lt;font face=&quot;Lucida Console&quot;&gt;Main&lt;/font&gt;" style="html=1;overflow=block;blockSpacing=1;swimlane;childLayout=stackLayout;horizontal=1;horizontalStack=0;resizeParent=1;resizeParentMax=0;resizeLast=0;collapsible=0;fontStyle=0;marginBottom=0;swimlaneFillColor=#ffffff;startSize=25;whiteSpace=wrap;fontSize=16.7;fontColor=#1D3557;align=center;spacing=0;strokeColor=#457B9D;strokeOpacity=100;rounded=1;absoluteArcSize=1;arcSize=9;strokeWidth=0.8;fillColor=#A8DADC;" parent="1" vertex="1">
          <mxGeometry x="-490" y="-2100" width="410" height="262.25" as="geometry" />
        </mxCell>
        <mxCell id="sQpOkhp2Sbl153yCbMzi-4" value="&lt;font style=&quot;font-size: 14px;&quot; face=&quot;Lucida Console&quot;&gt;+ TOTAL_QUESTIONS: int : 10&lt;/font&gt;" style="part=1;html=1;resizeHeight=0;strokeColor=none;fillColor=none;align=left;verticalAlign=middle;spacingLeft=4;spacingRight=4;overflow=hidden;rotatable=0;points=[[0,0.5],[1,0.5]];portConstraint=eastwest;swimlaneFillColor=#ffffff;strokeOpacity=100;whiteSpace=wrap;fontSize=16.7;fontColor=#1D3557;rounded=1;" parent="sQpOkhp2Sbl153yCbMzi-3" vertex="1">
          <mxGeometry y="25" width="410" height="92" as="geometry" />
        </mxCell>
        <mxCell id="sQpOkhp2Sbl153yCbMzi-5" value="" style="line;strokeWidth=1;fillColor=none;align=left;verticalAlign=middle;spacingTop=-1;spacingLeft=3;spacingRight=3;rotatable=0;labelPosition=right;points=[];portConstraint=eastwest;rounded=1;labelBackgroundColor=#F1FAEE;strokeColor=#457B9D;fontColor=#1D3557;" parent="sQpOkhp2Sbl153yCbMzi-3" vertex="1">
          <mxGeometry y="117" width="410" height="8" as="geometry" />
        </mxCell>
        <mxCell id="sQpOkhp2Sbl153yCbMzi-6" value="&lt;font style=&quot;font-size: 14px;&quot; face=&quot;Lucida Console&quot;&gt;+ listWrongAnswers(String[][]): void&lt;br&gt;+ playerUX(String[][]): int&lt;br&gt;+ compareAnswers(String, String): boolean&lt;br&gt;+ userInput(): String;&lt;br&gt;+ formatString(String): String&lt;br&gt;+ questionsLoad(int): String[][]&lt;br&gt;&lt;/font&gt;" style="part=1;html=1;resizeHeight=0;strokeColor=none;fillColor=none;align=left;verticalAlign=middle;spacingLeft=4;spacingRight=4;overflow=hidden;rotatable=0;points=[[0,0.5],[1,0.5]];portConstraint=eastwest;swimlaneFillColor=#ffffff;strokeOpacity=100;whiteSpace=wrap;fontSize=16.7;fontColor=#1D3557;rounded=1;" parent="sQpOkhp2Sbl153yCbMzi-3" vertex="1">
          <mxGeometry y="125" width="410" height="137.25" as="geometry" />
        </mxCell>
        <mxCell id="sQpOkhp2Sbl153yCbMzi-7" value="&lt;font face=&quot;Lucida Console&quot;&gt;CustomHttpClient&lt;/font&gt;" style="html=1;overflow=block;blockSpacing=1;swimlane;childLayout=stackLayout;horizontal=1;horizontalStack=0;resizeParent=1;resizeParentMax=0;resizeLast=0;collapsible=0;fontStyle=0;marginBottom=0;swimlaneFillColor=#ffffff;startSize=25;whiteSpace=wrap;fontSize=16.7;fontColor=#1D3557;align=center;spacing=0;strokeColor=#457B9D;strokeOpacity=100;rounded=1;absoluteArcSize=1;arcSize=9;strokeWidth=0.8;fillColor=#A8DADC;" parent="1" vertex="1">
          <mxGeometry x="-800" y="-1820" width="300" height="227.25" as="geometry" />
        </mxCell>
        <mxCell id="sQpOkhp2Sbl153yCbMzi-8" value="&lt;span style=&quot;background-color: initial;&quot;&gt;&lt;font style=&quot;font-size: 14px;&quot; face=&quot;Lucida Console&quot;&gt;+ statusCode: int&lt;/font&gt;&lt;/span&gt;&lt;div&gt;&lt;font style=&quot;&quot; face=&quot;Lucida Console&quot;&gt;&lt;span style=&quot;font-size: 14px;&quot;&gt;+ GET_URL:String =&amp;nbsp;&lt;/span&gt;&lt;/font&gt;&lt;span style=&quot;font-size: 14px; font-family: &amp;quot;Lucida Console&amp;quot;; background-color: initial;&quot;&gt;&quot;&lt;/span&gt;&lt;/div&gt;&lt;font face=&quot;Lucida Console&quot;&gt;&lt;span style=&quot;font-size: 14px;&quot;&gt;jservice.kenzie.academy/&lt;/span&gt;&lt;/font&gt;&lt;div&gt;&lt;font style=&quot;&quot; face=&quot;Lucida Console&quot;&gt;&lt;span style=&quot;font-size: 14px;&quot;&gt;api/random-clue&quot;&lt;/span&gt;&lt;/font&gt;&lt;/div&gt;" style="part=1;html=1;resizeHeight=0;strokeColor=none;fillColor=none;align=left;verticalAlign=middle;spacingLeft=4;spacingRight=4;overflow=hidden;rotatable=0;points=[[0,0.5],[1,0.5]];portConstraint=eastwest;swimlaneFillColor=#ffffff;strokeOpacity=100;whiteSpace=wrap;fontSize=16.7;fontColor=#1D3557;rounded=1;" parent="sQpOkhp2Sbl153yCbMzi-7" vertex="1">
          <mxGeometry y="25" width="300" height="92" as="geometry" />
        </mxCell>
        <mxCell id="sQpOkhp2Sbl153yCbMzi-9" value="" style="line;strokeWidth=1;fillColor=none;align=left;verticalAlign=middle;spacingTop=-1;spacingLeft=3;spacingRight=3;rotatable=0;labelPosition=right;points=[];portConstraint=eastwest;rounded=1;labelBackgroundColor=#F1FAEE;strokeColor=#457B9D;fontColor=#1D3557;" parent="sQpOkhp2Sbl153yCbMzi-7" vertex="1">
          <mxGeometry y="117" width="300" height="8" as="geometry" />
        </mxCell>
        <mxCell id="sQpOkhp2Sbl153yCbMzi-10" value="&lt;font style=&quot;font-size: 14px;&quot; face=&quot;Lucida Console&quot;&gt;+sendGetRequest(String): String&lt;/font&gt;" style="part=1;html=1;resizeHeight=0;strokeColor=none;fillColor=none;align=left;verticalAlign=middle;spacingLeft=4;spacingRight=4;overflow=hidden;rotatable=0;points=[[0,0.5],[1,0.5]];portConstraint=eastwest;swimlaneFillColor=#ffffff;strokeOpacity=100;whiteSpace=wrap;fontSize=16.7;fontColor=#1D3557;rounded=1;" parent="sQpOkhp2Sbl153yCbMzi-7" vertex="1">
          <mxGeometry y="125" width="300" height="102.25" as="geometry" />
        </mxCell>
        <mxCell id="DT4qRM4iOKq09jAWjtS9-1" value="&lt;font face=&quot;Lucida Console&quot;&gt;Category&lt;/font&gt;" style="html=1;overflow=block;blockSpacing=1;swimlane;childLayout=stackLayout;horizontal=1;horizontalStack=0;resizeParent=1;resizeParentMax=0;resizeLast=0;collapsible=0;fontStyle=0;marginBottom=0;swimlaneFillColor=#ffffff;startSize=25;whiteSpace=wrap;fontSize=16.7;fontColor=#1D3557;align=center;spacing=0;strokeColor=#457B9D;strokeOpacity=100;rounded=1;absoluteArcSize=1;arcSize=9;strokeWidth=0.8;fillColor=#A8DADC;" parent="1" vertex="1">
          <mxGeometry x="-360" y="-1430" width="270" height="222.25" as="geometry" />
        </mxCell>
        <mxCell id="DT4qRM4iOKq09jAWjtS9-2" value="&lt;font style=&quot;font-size: 14px;&quot; face=&quot;Lucida Console&quot;&gt;- Category.Id: String&lt;br&gt;- Category.Title: String&lt;br&gt;&lt;/font&gt;" style="part=1;html=1;resizeHeight=0;strokeColor=none;fillColor=none;align=left;verticalAlign=middle;spacingLeft=4;spacingRight=4;overflow=hidden;rotatable=0;points=[[0,0.5],[1,0.5]];portConstraint=eastwest;swimlaneFillColor=#ffffff;strokeOpacity=100;whiteSpace=wrap;fontSize=16.7;fontColor=#1D3557;rounded=1;" parent="DT4qRM4iOKq09jAWjtS9-1" vertex="1">
          <mxGeometry y="25" width="270" height="85" as="geometry" />
        </mxCell>
        <mxCell id="DT4qRM4iOKq09jAWjtS9-3" value="" style="line;strokeWidth=1;fillColor=none;align=left;verticalAlign=middle;spacingTop=-1;spacingLeft=3;spacingRight=3;rotatable=0;labelPosition=right;points=[];portConstraint=eastwest;rounded=1;labelBackgroundColor=#F1FAEE;strokeColor=#457B9D;fontColor=#1D3557;" parent="DT4qRM4iOKq09jAWjtS9-1" vertex="1">
          <mxGeometry y="110" width="270" height="8" as="geometry" />
        </mxCell>
        <mxCell id="DT4qRM4iOKq09jAWjtS9-4" value="&lt;font style=&quot;font-size: 14px;&quot; face=&quot;Lucida Console&quot;&gt;&lt;span style=&quot;color: rgb(58, 65, 74);&quot;&gt;+getId(): String&lt;/span&gt;&lt;br style=&quot;color: rgb(58, 65, 74);&quot;&gt;&lt;span style=&quot;color: rgb(58, 65, 74);&quot;&gt;+getTitle(): String&lt;/span&gt;&lt;/font&gt;" style="part=1;html=1;resizeHeight=0;strokeColor=none;fillColor=none;align=left;verticalAlign=middle;spacingLeft=4;spacingRight=4;overflow=hidden;rotatable=0;points=[[0,0.5],[1,0.5]];portConstraint=eastwest;swimlaneFillColor=#ffffff;strokeOpacity=100;whiteSpace=wrap;fontSize=13;rounded=1;fontColor=#1D3557;" parent="DT4qRM4iOKq09jAWjtS9-1" vertex="1">
          <mxGeometry y="118" width="270" height="104.25" as="geometry" />
        </mxCell>
        <mxCell id="DT4qRM4iOKq09jAWjtS9-16" style="edgeStyle=orthogonalEdgeStyle;rounded=1;orthogonalLoop=1;jettySize=auto;html=1;entryX=0.5;entryY=0;entryDx=0;entryDy=0;fontSize=24;fontColor=#1D3557;endArrow=none;endFill=0;startSize=14;endSize=14;strokeColor=#457B9D;fillColor=#A8DADC;" parent="1" source="sQpOkhp2Sbl153yCbMzi-4" target="sQpOkhp2Sbl153yCbMzi-7" edge="1">
          <mxGeometry relative="1" as="geometry" />
        </mxCell>
        <mxCell id="s43ffQbDL6bEtB-OK2GR-3" style="edgeStyle=orthogonalEdgeStyle;rounded=1;orthogonalLoop=1;jettySize=auto;html=1;fontSize=24;fontColor=#1D3557;endArrow=none;endFill=0;startSize=14;endSize=14;strokeColor=#457B9D;fillColor=#A8DADC;exitX=0.404;exitY=1.018;exitDx=0;exitDy=0;exitPerimeter=0;" edge="1" parent="1" source="QppL3apP4pxPCaE8zfrQ-19" target="DT4qRM4iOKq09jAWjtS9-1">
          <mxGeometry relative="1" as="geometry">
            <mxPoint x="-433.6999999999998" y="-1707.748" as="sourcePoint" />
            <mxPoint x="-310" y="-1400" as="targetPoint" />
            <Array as="points">
              <mxPoint x="-285" y="-1480" />
              <mxPoint x="-255" y="-1480" />
              <mxPoint x="-245" y="-1481" />
            </Array>
          </mxGeometry>
        </mxCell>
        <mxCell id="s43ffQbDL6bEtB-OK2GR-4" style="edgeStyle=orthogonalEdgeStyle;rounded=1;orthogonalLoop=1;jettySize=auto;html=1;fontSize=24;fontColor=#1D3557;endArrow=none;endFill=0;startSize=14;endSize=14;strokeColor=#457B9D;fillColor=#A8DADC;entryX=0.449;entryY=-0.009;entryDx=0;entryDy=0;entryPerimeter=0;exitX=0.535;exitY=1.019;exitDx=0;exitDy=0;exitPerimeter=0;" edge="1" parent="1" source="sQpOkhp2Sbl153yCbMzi-6" target="QppL3apP4pxPCaE8zfrQ-16">
          <mxGeometry relative="1" as="geometry">
            <mxPoint x="-250" y="-1840" as="sourcePoint" />
            <mxPoint x="-370.0000000000002" y="-1663.5294117647056" as="targetPoint" />
            <Array as="points">
              <mxPoint x="-270" y="-1835" />
              <mxPoint x="-270" y="-1788" />
              <mxPoint x="-241" y="-1788" />
            </Array>
          </mxGeometry>
        </mxCell>
      </root>
    </mxGraphModel>
  </diagram>
</mxfile>
